<?xml version="1.0"?>
<svg width="640" height="400" xmlns="http://www.w3.org/2000/svg" xmlns:svg="http://www.w3.org/2000/svg">
 <!-- Created with SVG-edit - https://github.com/SVG-Edit/svgedit-->
 <g class="layer">
  <title>Layer 1</title>
  <path d="m339.26,28.6l175.71,291.68l89.96,-32.22l-178.24,-282.01l-87.42,22.55l-0.01,0z" fill="#963b12" id="svg_14" stroke="#000000"/>
  <path d="m340.51,30.27l-17.18,45.23l171.13,297.91c0,0 20.53,-52.77 20.53,-52.35c0,0.42 -174.48,-290.79 -174.48,-290.79z" fill="#b73333" id="svg_15" stroke="#000000"/>
  <path d="m493.23,372.53l88.26,-31.34l24.27,-53.14l-91.21,32.22l-21.31,52.26l-0.01,0z" fill="#2d1600" id="svg_16" stroke="#000000"/>
  <path d="m18.85,353.47c-0.42,0.41 407.85,2.74 407.82,2.37c-0.03,-0.36 -3.74,-95.87 -3.77,-96.24c-0.03,-0.36 -405,3.64 -405.02,3.28c-0.03,-0.36 -1.42,87.16 -2.34,91.25l3.31,-0.66z" fill="#b73333" id="svg_17" stroke="#000000"/>
  <path d="m422.94,257.89l2.49,-2.88l-2.49,2.88z" fill="none" id="svg_19" stroke="#000000"/>
  <path d="m7.31,165.42l46.31,-48.07l287.6,-9.62c0,0 29.69,48.07 29.69,48.07c0,0 -363.6,9.62 -363.6,9.62z" fill="#963b12" id="svg_26" stroke="#000000"/>
  <path d="m13.87,269.01l-8.53,-103.96l363.6,-9.21c0,0 17.03,29.24 17.03,29.24c0,0 6.69,61.92 6.4,61.55c-0.3,-0.37 -367.57,22.66 -371.32,21.76c-3.74,-0.9 -3.73,0.61 -4.93,0.21c-1.19,-0.4 -0.57,0.85 -2.25,0.41z" fill="#b73333" id="svg_30" stroke="#000000"/>
  <path d="m392.28,245.75l21.85,-11.59l-27.88,-48.5l6.04,60.09l-0.01,0z" fill="#2d1600" id="svg_31" stroke="#000000"/>
  <path d="m143.65,261.08c18.7,-1.6 248.6,-14.91 248.3,-15.28c-0.3,-0.37 21.22,-11.76 20.92,-12.13c-0.3,-0.37 12.85,19.62 12.85,19.62c0,0 -3.85,6.82 -4.14,6.45c-0.3,-0.37 -296.62,2.95 -277.92,1.35l-0.01,-0.01z" fill="#bf5d33" id="svg_36" stroke="#000000"/>
  <path d="m426.55,355.8c-0.62,0.1 43.94,-24.28 43.64,-24.65c-0.3,-0.37 -44.89,-77.45 -45.19,-77.82c-0.3,-0.37 -3.05,6.65 -3.35,6.28c-0.3,-0.37 5.51,96.1 4.89,96.2l0.01,-0.01z" fill="#2d1600" id="svg_37" stroke="#000000"/>
 </g>
</svg>