<?xml version="1.0"?>
<svg width="200" height="150" xmlns="http://www.w3.org/2000/svg" xmlns:svg="http://www.w3.org/2000/svg">
 <!-- Created with SVG-edit - https://github.com/SVG-Edit/svgedit-->
 <g class="layer">
  <title>Layer 1</title>
  <g id="svg_1">
   <path d="m111.68,24.89l57.19,88.42l29.28,-9.77l-58.01,-85.49l-28.45,6.84l0,0z" fill="#963b12" id="svg_14" stroke="#000000" stroke-linejoin="round" stroke-width="2"/>
   <path d="m112.09,25.39l-5.59,13.71l55.7,90.31c0,0 6.68,-16 6.68,-15.87c0,0.13 -56.79,-88.15 -56.79,-88.15z" fill="#b73333" id="svg_15" stroke="#000000" stroke-linejoin="round" stroke-width="2"/>
   <path d="m161.79,129.14l28.73,-9.5l7.9,-16.11l-29.69,9.77l-6.94,15.84l0,0z" fill="#2d1600" id="svg_16" stroke="#000000" stroke-linejoin="round" stroke-width="2"/>
   <path d="m7.4,123.37c-0.14,0.12 132.74,0.83 132.73,0.72c-0.01,-0.11 -1.22,-29.06 -1.23,-29.17c-0.01,-0.11 -131.82,1.1 -131.82,0.99c-0.01,-0.11 -0.46,26.42 -0.76,27.66l1.08,-0.2z" fill="#b73333" id="svg_17" stroke="#000000" stroke-linejoin="round" stroke-width="2"/>
   <path d="m138.92,94.39l0.81,-0.87l-0.81,0.87z" fill="none" id="svg_19" stroke="#000000" stroke-linejoin="round" stroke-width="2"/>
   <path d="m3.64,66.36l15.07,-14.57l93.61,-2.92c0,0 9.66,14.57 9.66,14.57c0,0 -118.34,2.92 -118.34,2.92z" fill="#963b12" id="svg_26" stroke="#000000" stroke-linejoin="round" stroke-width="2"/>
   <path d="m5.78,97.76l-2.78,-31.51l118.34,-2.79c0,0 5.54,8.86 5.54,8.86c0,0 2.18,18.77 2.08,18.66c-0.1,-0.11 -119.63,6.87 -120.85,6.6c-1.22,-0.27 -1.21,0.18 -1.6,0.06c-0.39,-0.12 -0.19,0.26 -0.73,0.12z" fill="#b73333" id="svg_30" stroke="#000000" stroke-linejoin="round" stroke-width="2"/>
   <path d="m128.94,90.71l7.11,-3.51l-9.07,-14.7l1.97,18.22l0,0z" fill="#2d1600" id="svg_31" stroke="#000000" stroke-linejoin="round" stroke-width="2"/>
   <path d="m48.02,95.36c6.09,-0.49 80.91,-4.52 80.81,-4.63c-0.1,-0.11 6.91,-3.56 6.81,-3.68c-0.1,-0.11 4.18,5.95 4.18,5.95c0,0 -1.25,2.07 -1.35,1.96c-0.1,-0.11 -96.54,0.89 -90.46,0.41l0,0z" fill="#bf5d33" id="svg_36" stroke="#000000" stroke-linejoin="round" stroke-width="2"/>
   <path d="m140.09,124.07c-0.2,0.03 14.3,-7.36 14.2,-7.47c-0.1,-0.11 -14.61,-23.48 -14.71,-23.59c-0.1,-0.11 -0.99,2.02 -1.09,1.9c-0.1,-0.11 1.79,29.13 1.59,29.16l0,0z" fill="#2d1600" id="svg_37" stroke="#000000" stroke-linejoin="round" stroke-width="2"/>
  </g>
 </g>
</svg>