<?xml version="1.0"?>
<svg width="200" height="150" xmlns="http://www.w3.org/2000/svg" xmlns:svg="http://www.w3.org/2000/svg">
 <!-- Created with SVG-edit - https://github.com/SVG-Edit/svgedit-->
 <defs>
  <linearGradient id="svg_86" spreadMethod="pad">
   <stop id="jq_stop_6863" offset="0.96" stop-color="#ffd800"/>
   <stop id="jq_stop_1744" offset="1" stop-color="#0027ff"/>
   <stop id="jq_stop_322" offset="1" stop-color="#0027ff"/>
  </linearGradient>
 </defs>
 <g class="layer">
  <title>Layer 1</title>
  <ellipse cx="843" cy="486" fill="#FF0000" id="svg_2" opacity="0.5" rx="0" ry="0" stroke="#000000" stroke-width="5"/>
  <ellipse cx="791" cy="440" fill="#FF0000" id="svg_3" opacity="0.5" rx="0" ry="0" stroke="#000000" stroke-width="5"/>
  <ellipse cx="792" cy="489" fill="#FF0000" id="svg_4" opacity="0.5" rx="0" ry="0" stroke="#000000" stroke-width="5"/>
  <ellipse cx="653" cy="429" fill="#FF0000" id="svg_5" opacity="0.5" rx="0" ry="0" stroke="#000000" stroke-width="5"/>
  <ellipse cx="723" cy="478" fill="#FF0000" id="svg_6" opacity="0.5" rx="0" ry="0" stroke="#000000" stroke-width="5"/>
  <ellipse cx="916" cy="595" fill="#FF0000" id="svg_7" opacity="0.5" rx="0" ry="0" stroke="#000000" stroke-width="5"/>
  <ellipse cx="679" cy="432" fill="#FF0000" id="svg_8" opacity="0.5" rx="0" ry="0" stroke="#000000" stroke-width="5"/>
  <ellipse cx="635" cy="847" fill="#FF0000" id="svg_9" opacity="0.5" rx="0" ry="0" stroke="#000000" stroke-width="5"/>
  <ellipse cx="830" cy="782" fill="#FF0000" id="svg_10" opacity="0.5" rx="0" ry="0" stroke="#000000" stroke-width="5"/>
  <polyline fill="none" id="svg_11" opacity="0.5" points="495,511 " stroke="#000000" stroke-linecap="round" stroke-width="5"/>
  <polyline fill="none" id="svg_12" opacity="0.5" points="735,437 " stroke="#000000" stroke-linecap="round" stroke-width="5"/>
  <g id="svg_1">
   <ellipse cx="124.17" cy="10.36" fill="#ffd800" id="svg_13" rx="4.06" ry="9.86" stroke="#000000" stroke-width="3"/>
   <ellipse cx="150.89" cy="99.38" fill="#ffd800" id="svg_14" rx="5.62" ry="12.19" stroke="#000000" stroke-width="3" transform="matrix(0.580373 0.481859 -0.430527 0.649572 84.8458 -111.4)"/>
   <ellipse cx="210.85" cy="-6.44" fill="#ffd800" id="svg_15" rx="5.62" ry="11.89" stroke="#000000" stroke-width="3" transform="matrix(0.633452 -0.389204 0.347742 0.708979 -14.4778 112.214)"/>
   <ellipse cx="206.6" cy="13.22" fill="#ffd800" id="svg_16" rx="5.62" ry="12.19" stroke="#000000" stroke-width="3" transform="matrix(0.637222 -0.381418 0.340786 0.713198 -21.4632 110.423)"/>
   <ellipse cx="152.36" cy="161.05" fill="#ffd800" id="svg_17" rx="5.62" ry="12.19" stroke="#000000" stroke-width="3" transform="matrix(0.432344 0.648058 -0.579021 0.483892 155.962 -135.322)"/>
   <path d="m124.5,20.49l-18.09,110.57c-1.92,5.66 -3.99,10.45 -10.97,15.49" fill="none" fill-opacity="0.65" id="svg_49" stroke="#000000" stroke-width="3"/>
   <ellipse cx="218.22" cy="23.58" fill="#ffd800" id="svg_54" rx="5.62" ry="11.75" stroke="#000000" stroke-width="3" transform="matrix(0.583192 -0.477578 0.426702 0.652726 -26.2983 142.892)"/>
   <ellipse cx="158.07" cy="202.07" fill="#ffd800" id="svg_55" rx="5.62" ry="12.19" stroke="#000000" stroke-width="3" transform="matrix(0.313403 0.72876 -0.651126 0.35077 209.948 -131.724)"/>
   <ellipse cx="188.3" cy="59.48" fill="#ffd800" id="svg_56" rx="5.62" ry="12.19" stroke="#000000" stroke-width="3" transform="matrix(0.491788 -0.592591 0.529463 0.550424 -15.0198 144.694)"/>
   <ellipse cx="232.26" cy="52.68" fill="#ffd800" id="svg_57" rx="5.62" ry="12.19" stroke="#000000" stroke-width="3" transform="matrix(0.520542 -0.560982 0.501221 0.582607 -39.3163 177.219)"/>
   <ellipse cx="151.57" cy="230.2" fill="#ffd800" id="svg_58" rx="5.62" ry="12.19" stroke="#000000" stroke-width="3" transform="matrix(0.147881 0.791667 -0.707331 0.165513 265.881 -91.0524)"/>
   <ellipse cx="200.25" cy="272.37" fill="#ffd800" id="svg_59" rx="5.62" ry="12.19" stroke="#000000" stroke-width="3" transform="matrix(0.292266 0.739681 -0.660884 0.327113 244.855 -157.476)"/>
   <path d="m63.65,43.42c6.24,4.04 25.29,30.88 32.19,51.1c6.57,26.47 1.32,51.83 1.32,51.83" fill="none" fill-opacity="0.65" id="svg_65" stroke="#000000" stroke-width="3"/>
   <ellipse cx="146.09" cy="0.4" fill="#ffd800" id="svg_66" rx="5.62" ry="12.19" stroke="#000000" stroke-width="3" transform="matrix(0.576665 -0.487405 0.435482 0.645421 -26.8423 106.645)"/>
   <ellipse cx="96.11" cy="51.03" fill="#ffd800" id="svg_67" rx="5.62" ry="12.19" stroke="#000000" stroke-width="3" transform="matrix(0.71945 -0.0757327 0.067665 0.80523 -2.54652 4.09786)"/>
   <ellipse cx="237.46" cy="29.52" fill="#ffd800" id="svg_68" rx="5.62" ry="12.19" stroke="#000000" stroke-width="3" transform="matrix(0.14759 -0.791735 0.707392 0.165188 4.26589 234.27)"/>
   <ellipse cx="107.12" cy="54.43" fill="#ffd800" id="svg_69" rx="5.62" ry="12.19" stroke="#000000" stroke-width="3" transform="matrix(0.720983 0.0544903 -0.0486855 0.806946 3.68115 -2.29511)"/>
   <ellipse cx="115.61" cy="60.02" fill="#ffd800" id="svg_70" rx="5.62" ry="12.19" stroke="#000000" stroke-width="3" transform="matrix(0.705895 0.173026 -0.154594 0.790059 13.1604 -9.29737)"/>
   <ellipse cx="124.56" cy="70.77" fill="#ffd800" id="svg_71" rx="5.62" ry="12.19" stroke="#000000" stroke-width="3" transform="matrix(0.693983 0.225447 -0.20143 0.776727 20.5278 -13.5326)"/>
   <ellipse cx="271.55" cy="60.26" fill="#ffd800" id="svg_72" rx="5.62" ry="12.19" stroke="#000000" stroke-width="3" transform="matrix(-0.0149813 -0.80861 0.72247 -0.0167675 27.6304 282.391)"/>
   <ellipse cx="285.42" cy="71.45" fill="#ffd800" id="svg_73" rx="5.62" ry="12.19" stroke="#000000" stroke-width="3" transform="matrix(-0.0199153 -0.808476 0.72235 -0.0222898 27.7389 303.332)"/>
   <ellipse cx="273.94" cy="83.11" fill="#ffd800" id="svg_74" rx="5.62" ry="12.19" stroke="#000000" stroke-width="3" transform="matrix(-0.0215253 -0.808425 0.722304 -0.0240918 27.0864 304.381)"/>
   <ellipse cx="109.56" cy="154.57" fill="#ffd800" id="svg_75" rx="5.62" ry="12.19" stroke="#000000" stroke-width="3" transform="matrix(0.631149 0.393864 -0.351906 0.706401 83.8565 -73.3158)"/>
   <path d="m97.15,145.26c0,0 -16.43,-74.26 -57.15,-65.8c13.14,24.63 57.15,65.8 57.15,65.8z" fill="url(#svg_86)" id="svg_78" stroke="#000000" stroke-width="3"/>
   <path d="m96.49,143.41c0,0 25.29,-53.31 58.14,-57.35c-61.42,87.87 -58.14,57.35 -58.14,57.35z" fill="#ffd800" id="svg_80" stroke="#000000" stroke-width="3"/>
   <ellipse cx="261.95" cy="88.66" fill="#ffd800" id="svg_85" rx="5.62" ry="12.19" stroke="#000000" stroke-width="3" transform="matrix(-0.0215253 -0.808425 0.722304 -0.0240918 27.0864 304.381)"/>
  </g>
 </g>
</svg>