<?xml version="1.0"?>
<svg width="200" height="150" xmlns="http://www.w3.org/2000/svg" xmlns:svg="http://www.w3.org/2000/svg">
 <!-- Created with SVG-edit - https://github.com/SVG-Edit/svgedit-->
 <g class="layer">
  <title>Layer 1</title>
  <ellipse cx="843" cy="486" fill="#FF0000" id="svg_2" opacity="0.5" rx="0" ry="0" stroke="#000000" stroke-width="5"/>
  <ellipse cx="791" cy="440" fill="#FF0000" id="svg_3" opacity="0.5" rx="0" ry="0" stroke="#000000" stroke-width="5"/>
  <ellipse cx="792" cy="489" fill="#FF0000" id="svg_4" opacity="0.5" rx="0" ry="0" stroke="#000000" stroke-width="5"/>
  <ellipse cx="653" cy="429" fill="#FF0000" id="svg_5" opacity="0.5" rx="0" ry="0" stroke="#000000" stroke-width="5"/>
  <ellipse cx="723" cy="478" fill="#FF0000" id="svg_6" opacity="0.5" rx="0" ry="0" stroke="#000000" stroke-width="5"/>
  <ellipse cx="916" cy="595" fill="#FF0000" id="svg_7" opacity="0.5" rx="0" ry="0" stroke="#000000" stroke-width="5"/>
  <ellipse cx="679" cy="432" fill="#FF0000" id="svg_8" opacity="0.5" rx="0" ry="0" stroke="#000000" stroke-width="5"/>
  <ellipse cx="635" cy="847" fill="#FF0000" id="svg_9" opacity="0.5" rx="0" ry="0" stroke="#000000" stroke-width="5"/>
  <ellipse cx="830" cy="782" fill="#FF0000" id="svg_10" opacity="0.5" rx="0" ry="0" stroke="#000000" stroke-width="5"/>
  <polyline fill="none" id="svg_11" opacity="0.5" points="495,511 " stroke="#000000" stroke-linecap="round" stroke-width="5"/>
  <polyline fill="none" id="svg_12" opacity="0.5" points="735,437 " stroke="#000000" stroke-linecap="round" stroke-width="5"/>
  <g id="svg_14">
   <path d="m32.25,132.49l140.51,-0.5c5.11,-2.36 -44.15,-41.4 -38.34,-40.7c8.42,0.1 21.43,1.18 25.27,0.3c3.83,-0.88 -42.87,-45.52 -38.94,-46.02c3.93,-0.5 17.8,0.3 19.07,0.4c1.28,0.1 -38.74,-44.64 -40.51,-42.97c-1.77,1.67 -33.82,37.76 -35.29,40.41c-1.48,2.65 19.17,1.38 18.59,2.65l-39.52,43.65c-1.57,2.07 24.88,-1.77 27.33,1.38c2.46,3.15 -44.31,42.01 -38.15,41.4l-0.01,0z" fill="#206020" id="svg_1" stroke="#000000" stroke-width="5"/>
   <rect fill="#1c0e0e" height="13.77" id="svg_13" stroke="#000000" stroke-width="5" width="11.41" x="95.37" y="133.27"/>
  </g>
 </g>
</svg>