<?xml version="1.0"?>
<svg width="200" height="150" xmlns="http://www.w3.org/2000/svg" xmlns:svg="http://www.w3.org/2000/svg">
 <!-- Created with SVG-edit - https://github.com/SVG-Edit/svgedit-->
 <g class="layer">
  <title>Layer 1</title>
  <ellipse cx="843" cy="486" fill="#FF0000" id="svg_2" opacity="0.5" rx="0" ry="0" stroke="#000000" stroke-width="5"/>
  <ellipse cx="791" cy="440" fill="#FF0000" id="svg_3" opacity="0.5" rx="0" ry="0" stroke="#000000" stroke-width="5"/>
  <ellipse cx="792" cy="489" fill="#FF0000" id="svg_4" opacity="0.5" rx="0" ry="0" stroke="#000000" stroke-width="5"/>
  <ellipse cx="653" cy="429" fill="#FF0000" id="svg_5" opacity="0.5" rx="0" ry="0" stroke="#000000" stroke-width="5"/>
  <ellipse cx="723" cy="478" fill="#FF0000" id="svg_6" opacity="0.5" rx="0" ry="0" stroke="#000000" stroke-width="5"/>
  <ellipse cx="916" cy="595" fill="#FF0000" id="svg_7" opacity="0.5" rx="0" ry="0" stroke="#000000" stroke-width="5"/>
  <ellipse cx="679" cy="432" fill="#FF0000" id="svg_8" opacity="0.5" rx="0" ry="0" stroke="#000000" stroke-width="5"/>
  <ellipse cx="635" cy="847" fill="#FF0000" id="svg_9" opacity="0.5" rx="0" ry="0" stroke="#000000" stroke-width="5"/>
  <ellipse cx="830" cy="782" fill="#FF0000" id="svg_10" opacity="0.5" rx="0" ry="0" stroke="#000000" stroke-width="5"/>
  <polyline fill="none" id="svg_11" opacity="0.5" points="495,511 " stroke="#000000" stroke-linecap="round" stroke-width="5"/>
  <polyline fill="none" id="svg_12" opacity="0.5" points="735,437 " stroke="#000000" stroke-linecap="round" stroke-width="5"/>
  <g id="svg_18">
   <path d="m81.45,23.04c15.18,-9.91 7.74,-10.16 32.29,-10.16c24.54,0 16.36,13.11 15.19,18.51c-1.17,5.4 -5.84,30.08 -7.01,30.08c-1.17,0 -54.94,-10.03 -54.94,-10.03l10.12,-25.37l4.35,-3.03z" fill="#333333" id="svg_16" stroke="#000000" stroke-linecap="round" stroke-width="5"/>
   <path d="m31.14,33.07c-12.17,9.47 -27.05,36.52 -27.05,43.29c0,6.77 31.78,37.2 31.78,37.2c0,0 33.82,-4.74 41.92,-8.79c8.12,-4.05 16.91,-26.38 14.87,-33.13c-2.03,-6.77 -8.79,-32.46 -18.26,-37.87c-9.47,-5.4 -31.11,-10.14 -43.29,-0.68l0.01,-0.01z" fill="#333333" id="svg_1" stroke="#000000" stroke-width="5"/>
   <path d="m89.97,52.7l46.66,-38.55c25.03,-4.74 33.13,8.12 37.2,23.66c4.05,15.56 8.79,33.13 -15.56,46.66c-24.35,13.52 -44.64,-0.68 -51.39,-2.03c-6.77,-1.35 -33.13,-16.23 -16.91,-29.75l0,0.01z" fill="#333333" id="svg_13" stroke="#000000" stroke-width="5"/>
   <path d="m194.7,90.24c0,0 8.83,26.37 -15.79,25.66c-24.6,-0.71 -21.65,-0.05 -22.67,-6.78c-1.01,-6.73 -19.73,-11.71 -15.98,-16.16c3.75,-4.45 18.51,-16.42 25.01,-16.85c6.5,-0.43 29.43,14.12 29.43,14.12z" fill="#333333" id="svg_15" stroke="#000000" stroke-width="5"/>
   <path d="m52.78,93.94c10.77,-9.81 53.43,-17.58 53.43,-17.58c0,0 36.52,11.49 36.52,11.49c0,0 19.61,3.38 16.23,19.61c-3.38,16.23 -12.85,21.64 -12.85,21.64c0,0 -49.37,4.74 -52.74,5.4c-3.38,0.68 -43.29,2.03 -46.66,-0.68c-3.38,-2.7 -12.32,-11.06 -7.44,-22.99c4.88,-11.93 13.52,-16.91 13.52,-16.91l0,0.01z" fill="#333333" id="svg_14" stroke="#000000" stroke-width="5"/>
   <path d="m19.43,119.42c-0.49,-2.93 5.28,-18.28 15.29,-12.96c10.01,5.32 12.9,7.64 14.74,8.79c1.84,1.14 11.8,11.72 8.35,14.17c-3.43,2.45 -18.66,9.76 -20.63,7.33c-1.97,-2.45 -17.69,-12.21 -18.19,-15.14l0.45,-2.18l-0.01,0z" fill="#333333" id="svg_17" stroke="#000000" stroke-width="5"/>
  </g>
 </g>
</svg>