<?xml version="1.0"?>
<svg width="190" height="145" xmlns="http://www.w3.org/2000/svg" xmlns:svg="http://www.w3.org/2000/svg">
 <!-- Created with SVG-edit - https://github.com/SVG-Edit/svgedit-->
 <g class="layer">
  <title>Layer 1</title>
  <path d="m117.21,115.55l13.77,0l0,0c7.6,0 13.77,3 13.77,6.71c0,3.7 -6.16,6.71 -13.77,6.71l-13.77,0l0,-13.42z" fill="#e5e5e5" id="svg_31" stroke="#000000" stroke-width="5" transform="rotate(69.5615 130.973 122.256)"/>
  <path d="m30.93,112.89l13.38,0l0,0c7.39,0 13.38,2.81 13.38,6.29c0,3.47 -5.99,6.29 -13.38,6.29l-13.38,0l0,-12.58z" fill="#e5e5e5" id="svg_32" stroke="#000000" stroke-width="5" transform="rotate(114.132 44.3063 119.179)"/>
  <path d="m46.83,115.97l13.38,0l0,0c7.39,0 13.38,2.81 13.38,6.29c0,3.47 -5.99,6.29 -13.38,6.29l-13.38,0l0,-12.58z" fill="#e5e5e5" id="svg_33" stroke="#000000" stroke-width="5" transform="rotate(114.132 60.2041 122.256)"/>
  <path d="m131.75,113.84l12.43,0l0,0c6.87,0 12.43,2.96 12.43,6.62c0,3.66 -5.57,6.62 -12.43,6.62l-12.43,0l0,-13.24z" fill="#e5e5e5" id="svg_30" stroke="#000000" stroke-width="5" transform="rotate(69.5615 144.178 120.461)"/>
  <ellipse cx="843" cy="486" fill="#FF0000" id="svg_2" opacity="0.5" rx="0" ry="0" stroke="#000000" stroke-width="5"/>
  <ellipse cx="791" cy="440" fill="#FF0000" id="svg_3" opacity="0.5" rx="0" ry="0" stroke="#000000" stroke-width="5"/>
  <ellipse cx="792" cy="489" fill="#FF0000" id="svg_4" opacity="0.5" rx="0" ry="0" stroke="#000000" stroke-width="5"/>
  <ellipse cx="653" cy="429" fill="#FF0000" id="svg_5" opacity="0.5" rx="0" ry="0" stroke="#000000" stroke-width="5"/>
  <ellipse cx="723" cy="478" fill="#FF0000" id="svg_6" opacity="0.5" rx="0" ry="0" stroke="#000000" stroke-width="5"/>
  <ellipse cx="916" cy="595" fill="#FF0000" id="svg_7" opacity="0.5" rx="0" ry="0" stroke="#000000" stroke-width="5"/>
  <ellipse cx="679" cy="432" fill="#FF0000" id="svg_8" opacity="0.5" rx="0" ry="0" stroke="#000000" stroke-width="5"/>
  <ellipse cx="635" cy="847" fill="#FF0000" id="svg_9" opacity="0.5" rx="0" ry="0" stroke="#000000" stroke-width="5"/>
  <ellipse cx="830" cy="782" fill="#FF0000" id="svg_10" opacity="0.5" rx="0" ry="0" stroke="#000000" stroke-width="5"/>
  <polyline fill="none" id="svg_11" opacity="0.5" points="495,511 " stroke="#000000" stroke-linecap="round" stroke-width="5"/>
  <polyline fill="none" id="svg_12" opacity="0.5" points="735,437 " stroke="#000000" stroke-linecap="round" stroke-width="5"/>
  <ellipse cx="56.61" cy="88.68" fill="#e5e5e5" id="svg_13" rx="27.63" ry="26.84" stroke="#000000" stroke-width="5"/>
  <ellipse cx="128.98" cy="62.63" fill="#e5e5e5" id="svg_14" rx="40" ry="30.79" stroke="#000000" stroke-width="5"/>
  <ellipse cx="95.04" cy="71.58" fill="none" id="svg_15" rx="42.89" ry="39.21" stroke="#000000" stroke-width="5"/>
  <ellipse cx="98" cy="88.4" fill="#e5e5e5" id="svg_16" rx="38.95" ry="34.21" stroke="#000000" stroke-width="5"/>
  <ellipse cx="96.61" cy="41.32" fill="#e5e5e5" id="svg_17" rx="35" ry="25.79" stroke="#000000" stroke-width="5"/>
  <ellipse cx="142.92" cy="89.78" fill="#e5e5e5" id="svg_18" rx="30.72" ry="27.36" stroke="#000000" stroke-width="5"/>
  <ellipse cx="57.93" cy="62.37" fill="#e5e5e5" id="svg_19" rx="31.58" ry="22.63" stroke="#000000" stroke-width="5"/>
  <ellipse cx="101.07" cy="73.97" fill="#e5e5e5" id="svg_20" rx="61.54" ry="36.67" stroke="#e5e5e5" stroke-width="5"/>
  <ellipse cx="134.22" cy="44.66" fill="#e5e5e5" id="svg_21" rx="12.93" ry="7.59" stroke="#e5e5e5" stroke-width="5"/>
  <ellipse cx="161.11" cy="66.03" fill="#e5e5e5" id="svg_22" rx="2.93" ry="6.9" stroke="#e5e5e5" stroke-width="5"/>
  <ellipse cx="68.87" cy="45" fill="#e5e5e5" id="svg_23" rx="3.1" ry="8.28" stroke="#e5e5e5" stroke-width="5"/>
  <ellipse cx="37.91" cy="82.31" fill="#e5e5e5" id="svg_24" rx="2.57" ry="3.97" stroke="#e5e5e5" stroke-width="5"/>
  <ellipse cx="59.61" cy="101.55" fill="#e5e5e5" id="svg_25" rx="14.14" ry="9.66" stroke="#e5e5e5" stroke-width="5"/>
  <ellipse cx="119.46" cy="106.45" fill="#e5e5e5" id="svg_26" rx="6.36" ry="3.82" stroke="#e5e5e5" stroke-width="5" transform="rotate(-32.6621 119.455 106.451)"/>
  <ellipse cx="161.77" cy="-73.49" fill="#e5e5e5" id="svg_27" rx="24.73" ry="18.17" stroke="#000000" stroke-width="5" transform="matrix(1.12963 -0.532646 0.414418 1.29022 -115.722 218.398)"/>
  <path d="m161.38,55.26c11.79,-12.31 16.92,-6.41 16.92,-6.41c0,0 5.13,4.36 6.67,6.41c1.54,2.05 -3.85,11.28 -6.67,12.56c-2.82,1.28 -10.26,7.95 -16.92,1.28c-6.67,-6.67 0,-13.85 0,-13.85l0,0.01z" fill="#e5e5e5" id="svg_35" stroke="#000000" stroke-width="5"/>
  <ellipse cx="51.69" cy="27.87" fill="#e5e5e5" id="svg_37" rx="9.74" ry="16.51" stroke="#000000" stroke-width="5"/>
 </g>
</svg>