<?xml version="1.0"?>
<svg width="170" height="139" xmlns="http://www.w3.org/2000/svg" xmlns:svg="http://www.w3.org/2000/svg">
 <!-- Created with SVG-edit - https://github.com/SVG-Edit/svgedit-->
 <g class="layer">
  <title>Layer 1</title>
  <path d="m42.36,134.68c-0.36,0.83 92.14,1.66 92.32,-0.29c0.18,-1.95 -0.18,-51.12 -1.43,-52.24c-1.25,-1.12 -34.24,-0.95 -34.24,-0.95c0,0 -0.72,-36.07 -0.72,-39.81c0,-3.73 -26.53,-37.32 -27.61,-37.73c-1.08,-0.41 -27.61,36.49 -28.15,39.1c-0.54,2.61 -0.18,91.93 -0.18,91.93z" fill="#ffeb01" id="svg_13" stroke="#000000" stroke-width="2"/>
  <path d="m63.91,131.71l0,0l0,0c0,0 0,0 0,0c0,0 0,0 0,0l0,0z" fill="#000000" id="svg_14" stroke="#000000" stroke-width="5"/>
  <path d="m65.3,70.06l0,0l0,0c0,0 0,0 0,0c0,0 0,0 0,0l0,0z" fill="#000000" id="svg_16" stroke="#000000" stroke-width="5"/>
  <path d="m62.87,131.65l0,0l0,0c0,0 0,0 0,0c0,0 0,0 0,0l0,0z" fill="#000000" id="svg_18" stroke="#000000" stroke-width="5"/>
  <path d="m64.78,63.98l0,0l0,0c0,0 0,0 0,0c0,0 0,0 0,0l0,0z" fill="#000000" id="svg_19" stroke="#000000" stroke-width="5"/>
  <path d="m105.29,117.46l0,0l0,0c0,0 0,0 0,0c0,0 0,0 0,0l0,0z" fill="#000000" id="svg_21" stroke="#000000" stroke-width="5"/>
  <path d="m52.57,89.33l20.36,0l0,0c11.24,0 20.36,3.22 20.36,7.19c0,3.97 -9.11,7.19 -20.36,7.19l-20.36,0z" fill="#000000" id="svg_23" stroke="#000000" stroke-width="2" transform="matrix(0 -0.940841 1.40441 0 -65.8428 183.338)"/>
  <path d="m64.47,54l11.09,0l0,0c6.13,0 11.09,2.31 11.09,5.16c0,2.85 -4.97,5.16 -11.09,5.16l-11.09,0z" fill="#000000" id="svg_24" stroke="#000000" stroke-width="2" transform="matrix(0 -1 1.04831 0 7.88939 130.875)"/>
 </g>
</svg>