<?xml version="1.0"?>
<svg width="100" height="180" xmlns="http://www.w3.org/2000/svg" xmlns:svg="http://www.w3.org/2000/svg">
 <!-- Created with SVG-edit - https://github.com/SVG-Edit/svgedit-->
 <g class="layer">
  <title>Layer 1</title>
  <path d="m36.29,173.74c3.14,4.74 23.11,5.11 26.88,0.18c3.77,-4.92 -0.75,-69.46 1.88,-71.86c2.64,-2.4 27.36,3.55 28.49,-2.61c1.13,-6.16 3.01,-51.01 1.88,-56.48c-1.13,-5.48 -15.07,-6.16 -15.44,3.77c-0.38,9.93 -2.26,34.92 -2.26,37.65c0,2.74 -10.17,5.13 -12.81,1.03c-2.64,-4.11 -0.38,-59.22 -2.64,-73.6c-2.26,-14.38 -27.5,-12.32 -28.25,2.4c-0.75,14.72 1.88,57.51 -1.88,60.25c-3.77,2.74 -9.79,1.71 -12.43,0c-2.64,-1.71 1.13,-48.95 -1.13,-53.06c-2.26,-4.11 -14.31,-4.45 -15.44,0.34c-1.13,4.79 -3.01,62.3 0,65.72c3.01,3.42 23.97,5.42 29.62,7.13c5.65,1.71 0.38,74.39 3.53,79.13l0,0.01z" fill="#77935a" id="svg_19" stroke="#000000" stroke-width="2"/>
  <path d="m40,173.75c0,-0.99 0,-1.92 0,-2.77c0,-0.95 0,-1.88 0,-2.79c0,-0.85 0,-1.78 0,-2.71c0,-0.92 0,-1.86 0,-2.8c0,-0.91 0,-1.8 0,-2.68c0,-0.93 0,-1.86 0,-2.79c0,-0.93 0,-1.86 0,-2.79c0,-0.93 0,-1.86 0,-2.81c0,-0.87 0,-1.73 0,-2.76c0,-0.86 0,-1.81 0,-2.72c0,-0.84 0,-1.85 0,-2.72c0,-0.84 -0.09,-1.77 -0.32,-2.65c-0.23,-0.87 -0.18,-1.93 -0.18,-2.79c0,-1.02 0,-1.73 0,-2.75c0,-0.78 0,-1.8 0,-2.62c0,-1.16 0,-2 0,-2.96c0,-0.96 0,-1.66 0,-2.73c0,-0.78 0,-1.71 0,-2.79c0,-0.76 0,-1.83 0,-2.67c0,-0.85 0.09,-1.93 0,-2.84c-0.09,-0.86 -0.5,-1.6 -0.5,-2.51c0,-0.97 0,-1.97 0,-2.83c0,-0.83 -0.01,-1.76 0,-2.69c0.01,-0.93 0.33,-1.84 0.47,-2.79c0.14,-0.92 0.03,-1.82 0.03,-2.67c0,-0.91 0,-1.89 0,-2.72c0,-0.93 -0.01,-1.89 0,-2.74c0.01,-0.95 0.43,-1.84 0.5,-2.73c0.07,-0.9 0,-1.86 0,-2.79c0,-0.94 0,-1.81 0,-2.69c0,-0.92 0,-1.86 0,-2.78c0,-0.97 0,-1.93 0,-2.79c0,-0.95 0,-1.81 0,-2.75c0,-0.93 0,-1.8 0,-2.75c0,-0.88 0,-1.91 0,-2.77c0,-0.95 0,-1.81 0,-2.74c0,-0.96 0.01,-1.88 0.25,-2.69c0.26,-0.88 0.25,-1.81 0.25,-2.69c0,-0.93 -0.05,-1.87 0,-2.84c0.04,-0.85 0.49,-1.65 0.5,-2.59c0.01,-0.93 0,-1.81 0,-2.75c0,-0.85 0,-1.88 0,-2.83c0,-0.83 0,-1.76 0,-2.69c0,-0.92 0,-1.81 0,-2.73c0,-0.97 0,-1.87 0,-2.76c0,-0.93 0,-1.75 0,-2.78c0,-0.92 0,-1.84 0,-2.66c0,-1.02 -0.12,-2 0,-2.84c0.13,-0.9 0.64,-1.74 0.5,-2.67c-0.12,-0.82 -0.5,-1.64 -0.5,-2.67c0,-0.86 0,-1.8 0,-2.69c0,-0.85 0,-1.87 0,-2.8c0,-0.93 0.09,-1.79 -0.01,-2.7c-0.11,-0.94 -0.47,-1.75 -0.49,-2.7c-0.02,-0.99 0,-1.86 0,-2.8c0,-0.89 -0.03,-1.75 0.21,-2.65c0.25,-0.92 0.29,-1.82 0.29,-2.75c0,-0.88 0,-1.83 0,-2.74c0,-0.94 -0.01,-1.86 0,-2.75c0.01,-0.96 0.5,-1.64 0.5,-2.51c0,-0.94 0,-1.89 0,-2.79l0,-0.9" fill="none" id="svg_24" stroke="#49662d" stroke-linejoin="round"/>
  <path d="m44.5,174.25c0,-1.28 0,-2.11 0,-3.09c0,-0.86 0,-1.77 0,-2.68c0,-0.97 0,-1.81 0,-2.66c0,-0.93 0,-1.8 0,-2.71c0,-0.91 0,-1.82 0,-2.72c0,-0.93 0.05,-1.81 0.29,-2.64c0.25,-0.86 0.21,-1.81 0.21,-2.65c0,-0.92 0,-1.8 0,-2.71c0,-0.9 0,-1.75 0,-2.68c0,-0.85 0,-1.85 0,-2.7c0,-0.87 0,-1.69 0,-2.74c0,-0.76 0,-1.82 0,-2.6c0,-0.91 0,-1.82 0,-2.75c0,-0.85 -0.02,-1.81 0.11,-2.81c0.08,-0.61 0.29,-1.41 0.36,-2.43c0.06,-0.81 0.03,-1.82 0.03,-2.63c0,-1.01 0,-1.83 0,-2.92c0,-0.7 0.01,-1.69 0.11,-2.7c0.08,-0.76 0.27,-1.49 0.2,-2.64c-0.05,-0.87 -0.25,-1.74 -0.3,-2.69c-0.03,-0.72 -0.04,-1.87 -0.01,-2.51c0.04,-1.02 0.23,-1.83 0.35,-2.64c0.15,-1.01 0.13,-1.85 0.14,-2.98c0.01,-0.72 0.01,-1.44 0.18,-2.56c0.12,-0.84 0.3,-1.85 0.32,-2.62c0.03,-0.96 0.01,-1.96 0.01,-2.75c0,-0.96 -0.04,-1.69 0.01,-2.73c0.04,-1.01 0.23,-1.74 0.35,-2.5c0.16,-1.03 0.05,-2.02 0.18,-2.77c0.17,-0.97 0.42,-1.84 0.46,-2.77c0.03,-0.77 0.41,-1.67 0.49,-2.61c0.08,-0.87 0.01,-1.9 0.01,-2.65c0,-0.93 0,-1.88 0,-2.79c0,-0.81 0,-1.72 0,-2.63c0,-0.91 0,-1.82 0,-2.74c0,-0.87 0,-1.73 0,-2.64c0,-0.82 0,-1.88 0,-2.72c0,-0.91 0.18,-1.75 -0.04,-2.69c-0.21,-0.89 -0.46,-1.6 -0.46,-2.54c0,-1 0.08,-1.75 -0.11,-2.74c-0.17,-0.85 -0.39,-1.74 -0.39,-2.65c0,-0.91 0,-1.82 0,-2.73c0,-0.91 -0.18,-1.8 -0.36,-2.57c-0.21,-0.9 -0.14,-1.84 -0.14,-2.79c0,-0.91 -0.07,-1.71 -0.29,-2.53c-0.23,-0.89 -0.21,-1.86 -0.21,-2.69c0,-1.03 -0.07,-1.79 0.01,-2.77c0.07,-0.86 0.41,-1.67 0.48,-2.64c0.06,-0.87 -0.06,-1.85 0.15,-2.66c0.23,-0.89 0.31,-1.78 0.53,-2.62c0.23,-0.9 0.22,-1.81 0.41,-2.7c0.16,-0.76 0.41,-1.63 0.42,-2.57c0.01,-0.97 0,-1.78 0,-2.66c0,-1 0,-1.91 0,-2.74c0,-0.89 0.22,-1.77 0.42,-2.65c0.2,-0.91 0.02,-1.77 -0.2,-2.62c-0.22,-0.85 0.22,-1.68 0.29,-2.64c0.07,-0.91 0.2,-1.85 0,-2.68c-0.18,-0.77 -0.5,-1.55 -0.5,-2.35c0,-0.99 0.03,-1.91 -0.21,-2.77c-0.24,-0.85 -0.29,-1.76 -0.29,-2.64c0,-0.88 0.04,-1.76 0.29,-2.52c0.26,-0.8 0.21,-1.73 0.21,-2.63l0,-0.9l0,-0.87l0,-0.91" fill="none" id="svg_25" stroke="#49662d" stroke-linejoin="round"/>
  <path d="m51.86,175.25c0,-1.29 0,-2.18 0,-3.07c0,-0.89 0,-1.8 0,-2.62c0,-0.93 0,-1.79 0,-2.65c0,-0.87 0,-1.77 0,-2.66c0,-0.88 -0.24,-1.67 -0.36,-2.56c-0.12,-0.88 -0.01,-1.79 -0.01,-2.61c0,-0.85 0,-1.82 0,-2.66c0,-0.9 0,-1.74 0,-2.71c0,-0.87 0,-1.66 0,-2.63c0,-0.84 -0.02,-1.75 0,-2.58c0.02,-0.79 0.3,-1.7 0.36,-2.59c0.07,-0.91 0.01,-1.71 0.01,-2.62c0,-0.88 0,-1.72 0,-2.66c0,-0.85 0,-1.77 0,-2.65c0,-0.87 0,-1.75 0,-2.63c0,-0.93 -0.01,-1.64 0,-2.64c0.01,-0.72 0.21,-1.76 0.33,-2.64c0.12,-0.88 0.04,-1.69 0.05,-2.61c0,-0.88 0.07,-1.75 0.22,-2.63c0.15,-0.88 0.16,-1.81 0.16,-2.5c0,-1.03 0,-1.74 0,-2.67c0,-0.9 0,-1.79 0,-2.72c0,-0.85 0,-1.74 0,-2.67c0,-0.8 0,-1.71 0,-2.59c0,-0.86 0,-1.72 0,-2.67c0,-0.81 0.02,-1.74 0.19,-2.64c0.16,-0.83 0.19,-1.56 0.19,-2.59c0,-0.71 0,-1.73 0,-2.69c0,-0.81 0,-1.72 0,-2.54c0,-0.84 0,-1.82 0,-2.68c0,-0.9 0,-1.72 0,-2.53c0,-0.93 0,-1.83 0,-2.72c0,-0.89 -0.08,-1.8 0.08,-2.68c0.17,-0.91 0.21,-1.71 0.32,-2.58c0.09,-0.81 0.35,-1.68 0.36,-2.59c0.01,-0.82 -0.01,-1.82 0,-2.48c0.01,-1.04 0.31,-1.83 0.38,-2.74c0.07,-0.89 0,-1.72 0,-2.57c0,-0.98 0,-1.81 0,-2.68c0,-0.82 0,-1.73 0,-2.71c0,-0.81 -0.02,-1.71 0.16,-2.56c0.18,-0.82 -0.02,-1.67 -0.13,-2.49c-0.12,-0.9 -0.03,-1.81 -0.03,-2.62c0,-0.85 0,-1.73 0,-2.73c0,-0.82 -0.06,-1.69 0,-2.58c0.07,-0.93 0.37,-1.7 0.38,-2.59c0.01,-0.88 0,-1.77 0,-2.66c0,-0.89 0,-1.78 0,-2.68c0,-0.89 0,-1.78 0,-2.53c0,-0.98 0,-1.83 0,-2.72c0,-0.79 0.06,-1.69 -0.01,-2.59c-0.07,-0.86 -0.33,-1.78 -0.36,-2.62c-0.03,-0.9 0,-1.83 0,-2.72c0,-0.75 0,-1.69 0,-2.56c0,-0.81 0,-1.77 0,-2.63c0,-0.86 0,-1.74 0,-2.64c0,-0.89 0,-1.77 0,-2.66c0,-0.85 0,-1.81 0,-2.63c0,-0.87 0,-1.75 0,-2.63c0,-0.89 0,-1.83 0,-2.7c0,-0.87 0.04,-1.72 0,-2.61c-0.04,-0.86 -0.38,-1.59 -0.38,-2.47c0,-0.9 0.09,-1.78 0,-2.65c-0.08,-0.81 -0.37,-1.57 -0.19,-2.3l0.19,-0.58" fill="none" id="svg_26" stroke="#49662d" stroke-linejoin="round" transform="matrix(1 0 0 1 0 0)"/>
  <path d="m58.5,173.75c-0.5,-1.06 -0.5,-1.92 -0.5,-2.83c0,-0.91 0.01,-1.82 -0.21,-2.64c-0.24,-0.89 0.05,-1.68 0.21,-2.61c0.15,-0.82 0.32,-1.67 0.49,-2.52c0.17,-0.89 0.45,-1.76 0.51,-2.65c0.06,-0.89 0.39,-1.66 0.61,-2.56c0.21,-0.88 0.34,-1.66 0.41,-2.5c0.07,-0.86 0.45,-1.72 0.46,-2.75c0,-0.85 -0.45,-1.75 -0.48,-2.65c-0.03,-0.9 -0.04,-1.69 -0.25,-2.52c-0.23,-0.93 -0.43,-1.86 -0.57,-2.64c-0.18,-0.98 -0.12,-1.66 -0.26,-2.75c-0.12,-0.9 -0.37,-1.72 -0.42,-2.69c-0.04,-0.73 -0.29,-1.62 -0.44,-2.67c-0.11,-0.77 -0.06,-1.63 -0.06,-2.56c0,-0.91 0.02,-1.73 -0.14,-2.64c-0.15,-0.79 -0.34,-1.84 -0.36,-2.6c-0.02,-1.05 -0.08,-1.8 0.02,-2.76c0.09,-0.89 0.39,-1.64 0.46,-2.73c0.05,-0.79 -0.02,-1.8 0.05,-2.58c0.07,-0.9 0.39,-1.79 0.46,-2.65c0.08,-0.99 -0.01,-1.76 0.01,-2.65c0.02,-0.9 0.32,-1.88 0.44,-2.72c0.13,-0.87 0.06,-1.78 0.06,-2.72c0,-0.88 0.17,-1.83 0.32,-2.53c0.21,-0.96 0.18,-1.94 0.18,-2.73c0,-0.9 -0.06,-1.94 0.02,-2.68c0.11,-1.02 0.46,-1.83 0.48,-2.74c0.02,-0.91 0,-1.83 0,-2.67c0,-0.95 0,-1.82 0,-2.66c0,-0.89 0,-1.88 0,-2.75c0,-0.91 0,-1.72 0,-2.62c0,-0.91 0,-1.81 0,-2.7c0,-0.89 0,-1.85 0,-2.75c0,-0.89 0,-1.79 0,-2.62c0,-0.91 0,-1.81 0,-2.72c0,-0.93 0.14,-1.83 -0.14,-2.73c-0.24,-0.77 -0.36,-1.62 -0.36,-2.5c0,-1.01 0,-1.73 0,-2.64c0,-0.93 0,-1.92 0,-2.84c0,-0.82 0,-1.75 0,-2.6c0,-0.97 0,-1.84 0,-2.7c0,-0.88 0,-1.79 0,-2.75c0,-0.85 0,-1.73 0,-2.73c0,-0.87 0,-1.72 0,-2.65c0,-0.86 0,-1.77 0,-2.7c0,-0.92 0,-1.76 0,-2.62c0,-0.91 0,-1.76 0,-2.67c0,-0.91 0,-1.89 0,-2.77c0,-0.83 -0.2,-1.71 0,-2.67c0.17,-0.79 0.58,-1.63 0.5,-2.62c-0.07,-0.83 -0.49,-1.6 -0.5,-2.53c-0.01,-0.9 0,-1.78 0,-2.67c0,-0.91 0,-1.82 0,-2.71c0,-0.92 0.1,-1.76 0,-2.73c-0.09,-0.84 -0.38,-1.61 -0.54,-2.53c-0.14,-0.81 -0.46,-1.77 -0.46,-2.62c0,-0.93 0,-1.82 0,-2.72c0,-0.9 -0.39,-1.7 -0.5,-2.58c-0.11,-0.9 0,-1.77 0,-2.66c0,-0.92 0,-1.72 0,-2.7c0,-0.88 0,-1.79 0,-2.69l0,-0.89l0,-0.9l0,-0.88" fill="none" id="svg_27" stroke="#49662d" stroke-linejoin="round" transform="matrix(1 0 0 1 0 0)"/>
  <polyline fill="none" id="svg_28" points="295.5 240.25 294.327 240.923" stroke="#000000" stroke-linecap="round" stroke-linejoin="round"/>
  <path d="m60,89.81c0.92,0.48 1.52,1.06 2.35,1.38c0.76,0.3 1.64,0.06 2.54,0.06c0.8,0 1.65,0 2.52,0c0.83,0 1.73,0 2.54,0c0.87,-0.01 1.65,-0.32 2.47,-0.56c0.81,-0.24 1.52,-0.66 2.32,-0.85c0.85,-0.2 1.79,0.1 2.56,-0.13c0.79,-0.25 1.6,-0.52 2.34,-1.06c0.66,-0.48 1.24,-0.98 1.74,-1.71c0.44,-0.63 0.72,-1.43 0.73,-2.27c0.01,-0.85 0.29,-1.62 0.48,-2.4c0.21,-0.84 0.29,-1.64 0.47,-2.47c0.17,-0.83 0.02,-1.7 0.02,-2.56c0,-0.88 0,-1.76 0,-2.56c0,-0.87 0,-1.68 0,-2.55c0,-0.89 0,-1.73 0,-2.6c0,-0.86 0,-1.75 0,-2.56c0,-0.79 0.28,-1.65 0.48,-2.44c0.2,-0.8 0.01,-1.69 0.01,-2.59c0,-0.8 0,-1.63 0,-2.52c0,-0.85 -0.09,-1.71 0,-2.57c0.09,-0.81 0.47,-1.55 0.48,-2.42c0.01,-0.83 0,-1.77 0,-2.66c0,-0.8 -0.06,-1.67 0.17,-2.47c0.25,-0.84 0.1,-1.66 0.31,-2.49c0.21,-0.81 0.48,-1.56 0.48,-2.41l0,-0.86l-0.14,-0.78l-0.34,-0.69" fill="none" id="svg_29" stroke="#49662d" stroke-linejoin="round"/>
  <path d="m60.5,94.69c0.67,0.49 1.57,0.52 2.37,0.52c0.92,0 1.76,0.29 2.6,0.47c0.82,0.18 1.71,-0.01 2.49,-0.25c0.83,-0.26 1.73,0.06 2.57,0.28c0.86,0.23 1.69,0.3 2.5,0.53c0.81,0.23 1.73,0.02 2.57,0.01c0.88,-0.01 1.72,-0.33 2.59,-0.52c0.78,-0.17 1.61,-0.24 2.48,-0.54c0.78,-0.27 1.49,-0.77 2.3,-1.02c0.73,-0.23 1.5,-0.73 2.11,-1.3c0.59,-0.55 0.82,-1.49 1.12,-2.39c0.28,-0.83 0.73,-1.59 0.83,-2.53c0.11,-0.92 0.38,-1.78 0.5,-2.7c0.11,-0.83 0.19,-1.74 0.43,-2.65c0.23,-0.9 -0.01,-1.82 0.2,-2.68c0.22,-0.91 0.35,-1.81 0.35,-2.7c0,-0.93 0,-1.87 0,-2.83c0,-0.94 0.05,-1.8 0,-2.69c-0.05,-1.03 -0.45,-1.89 -0.49,-2.72c-0.05,-0.93 0,-1.87 0,-2.8c0,-0.93 0.07,-1.88 -0.17,-2.72c-0.25,-0.83 -0.28,-1.71 -0.32,-2.59c-0.04,-1.01 -0.42,-1.74 -0.49,-2.68c-0.07,-0.95 0,-1.98 0,-2.83c0,-0.93 -0.05,-1.89 0,-2.76c0.05,-1 0.49,-1.78 0.49,-2.67c0,-0.93 0.22,-1.73 0.45,-2.68c0.22,-0.88 0.32,-1.74 0.53,-2.57c0.24,-0.93 0,-1.9 0,-2.8l0.02,-0.9l0.47,-0.7" fill="none" id="svg_31" stroke="#49662d" stroke-linejoin="round" transform="matrix(1 0 0 1 0 0)"/>
  <path d="m39.5,79.41c-0.5,0.46 -1.1,0.84 -1.84,0.92c-0.69,0.08 -1.37,-0.03 -2.1,0.13c-0.68,0.15 -1.53,0.25 -2.21,0.33c-0.7,0.08 -1.39,0.45 -2.07,0.46c-0.81,0.01 -1.47,0 -2.22,0c-0.69,0 -1.43,0 -2.22,0c-0.69,0 -1.43,-0.1 -2.12,-0.3c-0.72,-0.21 -1.38,-0.43 -2.12,-0.7c-0.76,-0.28 -1.33,-0.57 -2.12,-0.79c-0.67,-0.19 -1.33,-0.14 -2.09,-0.35c-0.72,-0.2 -1.44,-0.17 -2.07,-0.49c-0.72,-0.38 -1.15,-1.03 -1.59,-1.65c-0.48,-0.68 -0.85,-1.34 -1.1,-2.08c-0.25,-0.75 -0.56,-1.51 -0.76,-2.38c-0.16,-0.68 -0.36,-1.49 -0.48,-2.22c-0.14,-0.85 -0.4,-1.56 -0.41,-2.38c0,-0.83 0,-1.7 0,-2.45c0,-0.86 0,-1.7 0,-2.53c0,-0.74 0,-1.58 0,-2.47c0,-0.77 0,-1.61 0,-2.42c0,-0.78 0,-1.6 0,-2.49c0,-0.72 0,-1.57 0,-2.36c0,-0.88 -0.1,-1.72 0,-2.5c0.1,-0.78 0.34,-1.58 0.41,-2.41c0.07,-0.84 0.37,-1.56 0.41,-2.34c0.04,-0.84 -0.09,-1.69 0.09,-2.54c0.17,-0.78 0.32,-1.51 0.32,-2.4c0,-0.79 0,-1.58 0,-2.42c0,-0.74 -0.02,-1.68 0,-2.46c0.02,-0.74 0.34,-1.53 0.41,-2.46c0.05,-0.65 0,-1.57 0,-2.31c0,-0.91 0.06,-1.71 0.27,-2.44c0.2,-0.71 0.14,-1.54 0.14,-2.38c0,-0.83 0.14,-1.61 0.41,-2.39l0,-0.8l0,-0.82" fill="none" id="svg_33" stroke="#49662d" stroke-linejoin="round"/>
  <path d="m59.5,99.75c0.96,0 1.72,0.38 2.6,0.5c0.89,0.13 1.75,0 2.66,0c0.89,0 1.8,0.12 2.64,0c0.88,-0.13 1.67,-0.59 2.45,-0.83c0.87,-0.27 1.75,-0.16 2.65,-0.18c0.86,-0.02 1.56,-0.38 2.4,-0.5c0.87,-0.13 1.62,-0.43 2.42,-0.18c0.81,0.26 1.73,0.18 2.62,0.18c0.88,0 1.76,0.08 2.67,0c0.86,-0.07 1.53,-0.57 2.21,-1.01c0.72,-0.46 1.39,-0.86 2.03,-1.37c0.73,-0.57 1.19,-1.2 1.64,-1.91c0.47,-0.73 0.91,-1.43 1.32,-2.12c0.45,-0.74 0.94,-1.51 1.16,-2.37c0.22,-0.88 -0.08,-1.82 0.02,-2.64c0.11,-0.9 0.5,-1.68 0.5,-2.56c0,-0.91 -0.17,-1.84 0.08,-2.67c0.25,-0.82 0.42,-1.67 0.42,-2.52c0,-0.98 0,-1.82 0,-2.72c0,-0.91 0,-1.83 0,-2.74c0,-0.87 0,-1.75 0,-2.69c0,-0.82 0,-1.75 0,-2.61c0,-1 0,-1.83 0,-2.7c0,-0.91 0,-1.84 0,-2.72c0,-0.93 0,-1.77 0,-2.67c0,-0.91 0,-1.82 0,-2.67c0,-0.9 0,-1.84 0,-2.72c0,-0.93 0,-1.79 0,-2.71c0,-0.91 0.35,-1.68 0.5,-2.53c0.15,-0.86 -0.5,-1.61 -0.5,-2.55c0,-0.87 0.36,-1.63 0.5,-2.53l0,-0.9l0,-0.91l0,-0.88" fill="none" id="svg_34" stroke="#49662d" stroke-linejoin="round" transform="matrix(1 0 0 1 0 0)"/>
  <path d="m39.28,86.51c-0.65,0.53 -1.42,0.96 -2.38,1.05c-0.89,0.09 -1.77,-0.04 -2.71,0.15c-0.88,0.18 -1.98,0.29 -2.85,0.38c-0.9,0.09 -1.8,0.52 -2.67,0.53c-1.05,0.01 -1.9,0 -2.86,0c-0.89,0 -1.84,0 -2.87,0c-0.89,0 -1.85,-0.11 -2.73,-0.34c-0.92,-0.24 -1.79,-0.49 -2.74,-0.8c-0.98,-0.32 -1.72,-0.65 -2.73,-0.9c-0.87,-0.21 -1.72,-0.16 -2.69,-0.41c-0.92,-0.23 -1.86,-0.19 -2.67,-0.56c-0.93,-0.43 -1.48,-1.18 -2.05,-1.89c-0.62,-0.78 -1.1,-1.54 -1.42,-2.38c-0.32,-0.86 -0.72,-1.73 -0.98,-2.73c-0.21,-0.78 -0.47,-1.7 -0.62,-2.55c-0.18,-0.98 -0.52,-1.79 -0.52,-2.73c0,-0.96 0,-1.94 0,-2.8c0,-0.99 0,-1.94 0,-2.9c0,-0.85 0,-1.8 0,-2.83c0,-0.88 0,-1.84 0,-2.77c0,-0.89 0,-1.83 0,-2.85c0,-0.82 0,-1.79 0,-2.7c0,-1.01 -0.13,-1.96 0.01,-2.86c0.13,-0.9 0.44,-1.81 0.53,-2.76c0.09,-0.96 0.48,-1.79 0.53,-2.68c0.05,-0.96 -0.12,-1.94 0.12,-2.91c0.22,-0.89 0.41,-1.73 0.41,-2.74c0,-0.91 0,-1.81 0,-2.78c0,-0.84 -0.02,-1.93 0,-2.82c0.02,-0.84 0.44,-1.75 0.53,-2.81c0.07,-0.74 0,-1.8 0,-2.64c0,-1.04 0.07,-1.96 0.34,-2.79c0.26,-0.81 0.19,-1.76 0.19,-2.72c0,-0.95 0.19,-1.85 0.53,-2.73l0,-0.92l0,-0.94" fill="none" id="svg_40" stroke="#49662d" stroke-linejoin="round"/>
  <path d="m40.28,82.62c-0.6,0.5 -1.32,0.91 -2.21,1c-0.82,0.08 -1.65,-0.04 -2.52,0.14c-0.82,0.17 -1.84,0.27 -2.65,0.36c-0.84,0.09 -1.67,0.49 -2.48,0.5c-0.97,0.01 -1.77,0 -2.66,0c-0.83,0 -1.71,0 -2.67,0c-0.83,0 -1.72,-0.11 -2.54,-0.32c-0.86,-0.23 -1.66,-0.47 -2.55,-0.76c-0.91,-0.3 -1.6,-0.62 -2.54,-0.86c-0.8,-0.2 -1.6,-0.15 -2.5,-0.38c-0.86,-0.22 -1.73,-0.18 -2.48,-0.53c-0.87,-0.41 -1.38,-1.12 -1.91,-1.79c-0.57,-0.74 -1.02,-1.46 -1.32,-2.26c-0.3,-0.81 -0.67,-1.64 -0.92,-2.59c-0.19,-0.74 -0.44,-1.61 -0.58,-2.41c-0.17,-0.93 -0.48,-1.69 -0.49,-2.59c0,-0.91 0,-1.84 0,-2.66c0,-0.94 0,-1.84 0,-2.75c0,-0.81 0,-1.71 0,-2.68c0,-0.83 0,-1.75 0,-2.63c0,-0.84 0,-1.74 0,-2.71c0,-0.78 0,-1.7 0,-2.56c0,-0.95 -0.12,-1.86 0.01,-2.71c0.12,-0.85 0.41,-1.72 0.49,-2.61c0.08,-0.91 0.45,-1.7 0.49,-2.54c0.04,-0.91 -0.11,-1.83 0.11,-2.76c0.2,-0.85 0.38,-1.64 0.38,-2.6c0,-0.86 0,-1.71 0,-2.63c0,-0.8 -0.02,-1.83 0,-2.67c0.02,-0.8 0.41,-1.66 0.49,-2.67c0.06,-0.71 0,-1.71 0,-2.51c0,-0.99 0.07,-1.86 0.32,-2.65c0.24,-0.77 0.17,-1.67 0.17,-2.58c0,-0.9 0.17,-1.75 0.49,-2.59l0,-0.87l0,-0.89" fill="none" id="svg_41" stroke="#49662d" stroke-linejoin="round"/>
 </g>
</svg>