<?xml version="1.0"?>
<svg width="180" height="280" xmlns="http://www.w3.org/2000/svg" xmlns:svg="http://www.w3.org/2000/svg">
 <!-- Created with SVG-edit - https://github.com/SVG-Edit/svgedit-->
 <defs>undefinedundefined</defs>
 <g class="layer">
  <title>Layer 1</title>
  <rect fill="#965416" height="13.53" id="svg_10" stroke="#000000" stroke-width="2" width="6.47" x="60.74" y="190.63"/>
  <path d="m13.09,219.45c17.06,40.59 17.06,41.18 22.94,44.12c5.88,2.94 108.82,1.76 118.82,-1.76c10,-3.53 29.41,-80 15.88,-70.59c-13.53,9.41 -65.29,12.35 -80,10c-14.71,-2.35 -54.12,5.88 -65.29,0c-11.18,-5.88 -29.41,-22.35 -12.35,18.24l0,-0.01z" fill="#6d3400" id="svg_9" stroke="#000000" stroke-width="2"/>
  <rect fill="#965416" height="14" id="svg_2" rx="5" ry="5" stroke="#000000" stroke-width="2" width="100" x="11.5" y="29.63"/>
  <rect fill="#965416" height="11.82" id="svg_3" rx="5" ry="5" stroke="#000000" stroke-width="2" width="20.53" x="52.62" y="20.92"/>
  <path d="m17.74,191.45c-14.87,-4.62 -4.57,-151.96 -1.69,-153.82c0.72,-0.46 1.71,0.29 2.83,1.71c1.12,1.42 2.38,3.49 3.64,5.66c1.26,2.17 2.54,4.44 3.69,6.25c1.15,1.81 2.18,3.15 2.96,3.46c3.13,1.26 10.17,-15.53 13.36,-16.54c3.19,-1.02 -7.28,14.57 5.72,15.53c13,0.96 12.52,-15.71 14.93,-15.71c2.41,0 -2.83,15.89 3.07,16.72c5.9,0.84 17.21,-16.54 19.62,-15.95c2.41,0.6 -5.72,16.24 3.79,17.56c9.51,1.32 15.41,-17.74 17.09,-16.72c1.69,1.02 -3.25,147.58 6.14,151.84c9.39,4.26 -80.29,4.62 -95.16,0l0.01,0.01z" fill="#e5e5e5" id="svg_5" stroke="#000000" stroke-width="3"/>
  <rect fill="#965416" height="8.82" id="svg_6" stroke="#000000" stroke-width="2" width="4.12" x="61.32" y="12.39"/>
  <path d="m58.91,15.16c-2.26,-1.74 -1.13,-8.68 0,-9.55c1.13,-0.87 23.12,-0.87 29.89,-0.87c6.77,0 -2.26,4.77 -2.82,5.21c-0.56,0.43 24.25,-3.91 24.81,-3.47c0.56,0.43 2.26,7.38 0.56,7.81c-1.69,0.43 -32.14,7.38 -34.96,4.77c-2.82,-2.6 2.26,-6.08 1.13,-6.95c-1.13,-0.87 -16.35,4.77 -18.61,3.04l0,0.01z" fill="#e5e5e5" id="svg_7" stroke="#000000" stroke-width="3"/>
  <text fill="#000000" font-family="Cursive" font-size="25" id="svg_12" stroke="#000000" stroke-width="0" text-anchor="middle" transform="matrix(1 0 0 1 0 0) matrix(1 0 0 1 0 0) matrix(1 0 0 1 0 0)" x="58.38" xml:space="preserve" y="165.04">2:1</text>
  <text fill="#000000" font-family="Cursive" font-size="44" id="svg_14" stroke="#000000" stroke-width="0" text-anchor="middle" textLength="0" x="58.37" xml:space="preserve" y="119.74"/>
  <g id="svg_62">
   <path d="m71.26,76.68c0,-2.32 0.9,-4.2 2.01,-4.2c1.11,0 2.01,1.88 2.01,4.2c0,2.32 -0.9,4.2 -2.01,4.2c-1.11,0 -2.01,-1.88 -2.01,-4.2z" fill="#e5e5e5" id="svg_61" stroke="#000000" stroke-width="2"/>
   <path d="m74.35,82.13c1.43,-1.86 3.31,-2.86 4.2,-2.22c0.89,0.64 0.45,2.66 -0.98,4.52c-1.43,1.86 -3.31,2.86 -4.2,2.22c-0.89,-0.64 -0.45,-2.66 0.98,-4.52z" fill="#e5e5e5" id="svg_60" stroke="#000000" stroke-width="2"/>
   <path d="m67.89,84.09c-1.13,-1.98 -1.26,-4.01 -0.28,-4.52c0.97,-0.51 2.67,0.67 3.8,2.66c1.13,1.98 1.26,4.01 0.28,4.52c-0.97,0.51 -2.67,-0.67 -3.8,-2.66z" fill="#e5e5e5" id="svg_59" stroke="#000000" stroke-width="2"/>
   <path d="m66.81,90.66c-1.13,-2.05 -1.26,-4.11 -0.28,-4.61c0.98,-0.5 2.69,0.74 3.82,2.79c1.13,2.05 1.26,4.11 0.28,4.61c-0.98,0.5 -2.69,-0.74 -3.82,-2.79z" fill="#e5e5e5" id="svg_58" stroke="#000000" stroke-width="2"/>
   <path d="m74.25,88.32c1.93,-1.39 4.02,-1.82 4.69,-0.96c0.66,0.86 -0.36,2.67 -2.29,4.06c-1.93,1.39 -4.02,1.82 -4.69,0.96c-0.66,-0.86 0.36,-2.67 2.29,-4.06z" fill="#e5e5e5" id="svg_57" stroke="#000000" stroke-width="2"/>
   <path d="m73.43,80.99l-8.94,47.08c-0.95,2.41 -1.97,4.45 -5.42,6.6" fill="#e5e5e5" id="svg_56" stroke="#000000" stroke-width="2"/>
   <path d="m65.15,96.43c-1.37,-1.8 -1.75,-3.78 -0.86,-4.41c0.89,-0.63 2.73,0.32 4.1,2.12c1.37,1.8 1.75,3.78 0.86,4.41c-0.89,0.63 -2.73,-0.32 -4.1,-2.12z" fill="#e5e5e5" id="svg_55" stroke="#000000" stroke-width="2"/>
   <path d="m74.25,93.67c2.17,-1.01 4.31,-1.04 4.79,-0.08c0.48,0.96 -0.88,2.56 -3.05,3.56c-2.17,1.01 -4.31,1.04 -4.79,0.08c-0.48,-0.96 0.88,-2.56 3.05,-3.56z" fill="#e5e5e5" id="svg_54" stroke="#000000" stroke-width="2"/>
   <path d="m64.44,101.72c-1.76,-1.58 -2.58,-3.49 -1.82,-4.28c0.75,-0.78 2.79,-0.14 4.55,1.44c1.76,1.58 2.58,3.49 1.82,4.28c-0.75,0.78 -2.79,0.14 -4.55,-1.44z" fill="#e5e5e5" id="svg_53" stroke="#000000" stroke-width="2"/>
   <path d="m63.83,106.66c-1.67,-1.67 -2.37,-3.63 -1.57,-4.37c0.8,-0.74 2.8,0.01 4.46,1.68c1.67,1.67 2.37,3.63 1.57,4.37c-0.8,0.74 -2.8,-0.01 -4.46,-1.68z" fill="#e5e5e5" id="svg_52" stroke="#000000" stroke-width="2"/>
   <path d="m73.5,98.92c2.35,-0.47 4.44,-0.01 4.67,1.04c0.23,1.05 -1.5,2.28 -3.85,2.75c-2.35,0.47 -4.44,0.01 -4.67,-1.04c-0.23,-1.05 1.5,-2.28 3.85,-2.75z" fill="#e5e5e5" id="svg_51" stroke="#000000" stroke-width="2"/>
   <path d="m72.06,104.45c2.2,-0.94 4.34,-0.91 4.79,0.07c0.45,0.98 -0.97,2.53 -3.17,3.47c-2.2,0.94 -4.34,0.91 -4.79,-0.07c-0.45,-0.98 0.97,-2.53 3.17,-3.47z" fill="#e5e5e5" id="svg_50" stroke="#000000" stroke-width="2"/>
   <path d="m43.37,90.76c3.08,1.72 12.49,13.15 15.9,21.76c3.25,11.27 0.65,22.07 0.65,22.07" fill="#e5e5e5" id="svg_49" stroke="#000000" stroke-width="2"/>
   <path d="m38.77,88.63c-1.45,-1.85 -1.91,-3.87 -1.02,-4.52c0.88,-0.64 2.77,0.33 4.22,2.18c1.45,1.85 1.91,3.87 1.02,4.52c-0.88,0.64 -2.77,-0.33 -4.22,-2.18z" fill="#e5e5e5" id="svg_48" stroke="#000000" stroke-width="2"/>
   <path d="m44.53,88.59c-0.23,-2.31 0.49,-4.26 1.59,-4.36c1.1,-0.1 2.18,1.69 2.4,4c0.23,2.31 -0.49,4.26 -1.59,4.36c-1.1,0.1 -2.18,-1.69 -2.4,-4z" fill="#e5e5e5" id="svg_47" stroke="#000000" stroke-width="2"/>
   <path d="m41.25,95.94c-2.35,-0.47 -4.08,-1.71 -3.85,-2.75c0.23,-1.05 2.32,-1.51 4.67,-1.04c2.35,0.47 4.08,1.71 3.85,2.75c-0.23,1.05 -2.32,1.51 -4.67,1.04z" fill="#e5e5e5" id="svg_46" stroke="#000000" stroke-width="2"/>
   <path d="m48.59,92.35c0.16,-2.31 1.19,-4.13 2.29,-4.06c1.11,0.07 1.87,2 1.71,4.32c-0.16,2.31 -1.19,4.13 -2.29,4.06c-1.11,-0.07 -1.87,-2 -1.71,-4.32z" fill="#e5e5e5" id="svg_45" stroke="#000000" stroke-width="2"/>
   <path d="m52.2,96.6c0.51,-2.27 1.81,-3.92 2.89,-3.69c1.08,0.23 1.54,2.25 1.03,4.52c-0.51,2.27 -1.81,3.92 -2.89,3.69c-1.08,-0.23 -1.54,-2.25 -1.03,-4.52z" fill="#e5e5e5" id="svg_44" stroke="#000000" stroke-width="2"/>
   <path d="m55.8,101.33c0.67,-2.23 2.08,-3.79 3.14,-3.49c1.06,0.3 1.38,2.34 0.71,4.57c-0.67,2.23 -2.08,3.79 -3.14,3.49c-1.06,-0.3 -1.38,-2.34 -0.71,-4.57z" fill="#e5e5e5" id="svg_43" stroke="#000000" stroke-width="2"/>
   <path d="m45.11,100.52c-2.4,0.05 -4.37,-0.78 -4.39,-1.85c-0.02,-1.07 1.91,-1.97 4.31,-2.02c2.4,-0.05 4.37,0.78 4.39,1.85c0.02,1.07 -1.91,1.97 -4.31,2.02z" fill="#e5e5e5" id="svg_42" stroke="#000000" stroke-width="2"/>
   <path d="m48.37,104.43c-2.4,0.06 -4.37,-0.75 -4.41,-1.82c-0.03,-1.07 1.89,-1.99 4.29,-2.05c2.4,-0.06 4.37,0.75 4.41,1.82c0.03,1.07 -1.89,1.99 -4.29,2.05z" fill="#e5e5e5" id="svg_41" stroke="#000000" stroke-width="2"/>
   <path d="m52.11,108.66c-2.4,0.07 -4.38,-0.74 -4.41,-1.81c-0.03,-1.07 1.89,-1.99 4.29,-2.06c2.4,-0.07 4.38,0.74 4.41,1.81c0.03,1.07 -1.89,1.99 -4.29,2.06z" fill="#e5e5e5" id="svg_40" stroke="#000000" stroke-width="2"/>
   <path d="m58.89,104.98c1.17,-2.03 2.9,-3.24 3.87,-2.72c0.97,0.52 0.8,2.58 -0.37,4.61c-1.17,2.03 -2.9,3.24 -3.87,2.72c-0.97,-0.52 -0.8,-2.58 0.37,-4.61z" fill="#e5e5e5" id="svg_39" stroke="#000000" stroke-width="2"/>
   <path d="m59.92,134.12c0,0 -8.11,-31.62 -28.23,-28.02c6.49,10.49 28.23,28.02 28.23,28.02z" fill="#e5e5e5" id="svg_38" stroke="#000000" stroke-width="2"/>
   <path d="m59.59,133.34c0,0 12.49,-22.7 28.72,-24.42c-30.34,37.42 -28.72,24.42 -28.72,24.42z" fill="#e5e5e5" id="svg_37" stroke="#000000" stroke-width="2"/>
   <path d="m54.22,112.73c-2.4,0.07 -4.38,-0.74 -4.41,-1.81c-0.03,-1.07 1.89,-1.99 4.29,-2.06c2.4,-0.07 4.38,0.74 4.41,1.81c0.03,1.07 -1.89,1.99 -4.29,2.06z" fill="#e5e5e5" id="svg_36" stroke="#000000" stroke-width="2"/>
  </g>
 </g>
</svg>