<?xml version="1.0"?>
<svg width="180" height="280" xmlns="http://www.w3.org/2000/svg" xmlns:svg="http://www.w3.org/2000/svg">
 <!-- Created with SVG-edit - https://github.com/SVG-Edit/svgedit-->
 <defs>undefinedundefined</defs>
 <g class="layer">
  <title>Layer 1</title>
  <rect fill="#965416" height="13.53" id="svg_10" stroke="#000000" stroke-width="2" width="6.47" x="60.74" y="190.63"/>
  <path d="m13.09,219.45c17.06,40.59 17.06,41.18 22.94,44.12c5.88,2.94 108.82,1.76 118.82,-1.76c10,-3.53 29.41,-80 15.88,-70.59c-13.53,9.41 -65.29,12.35 -80,10c-14.71,-2.35 -54.12,5.88 -65.29,0c-11.18,-5.88 -29.41,-22.35 -12.35,18.24l0,-0.01z" fill="#6d3400" id="svg_9" stroke="#000000" stroke-width="2"/>
  <rect fill="#965416" height="14" id="svg_2" rx="5" ry="5" stroke="#000000" stroke-width="2" width="100" x="11.5" y="29.63"/>
  <rect fill="#965416" height="11.82" id="svg_3" rx="5" ry="5" stroke="#000000" stroke-width="2" width="20.53" x="52.62" y="20.92"/>
  <path d="m17.74,191.45c-14.87,-4.62 -4.57,-151.96 -1.69,-153.82c0.72,-0.46 1.71,0.29 2.83,1.71c1.12,1.42 2.38,3.49 3.64,5.66c1.26,2.17 2.54,4.44 3.69,6.25c1.15,1.81 2.18,3.15 2.96,3.46c3.13,1.26 10.17,-15.53 13.36,-16.54c3.19,-1.02 -7.28,14.57 5.72,15.53c13,0.96 12.52,-15.71 14.93,-15.71c2.41,0 -2.83,15.89 3.07,16.72c5.9,0.84 17.21,-16.54 19.62,-15.95c2.41,0.6 -5.72,16.24 3.79,17.56c9.51,1.32 15.41,-17.74 17.09,-16.72c1.69,1.02 -3.25,147.58 6.14,151.84c9.39,4.26 -80.29,4.62 -95.16,0l0.01,0.01z" fill="#e5e5e5" id="svg_5" stroke="#000000" stroke-width="3"/>
  <rect fill="#965416" height="8.82" id="svg_6" stroke="#000000" stroke-width="2" width="4.12" x="61.32" y="12.39"/>
  <path d="m58.91,15.16c-2.26,-1.74 -1.13,-8.68 0,-9.55c1.13,-0.87 23.12,-0.87 29.89,-0.87c6.77,0 -2.26,4.77 -2.82,5.21c-0.56,0.43 24.25,-3.91 24.81,-3.47c0.56,0.43 2.26,7.38 0.56,7.81c-1.69,0.43 -32.14,7.38 -34.96,4.77c-2.82,-2.6 2.26,-6.08 1.13,-6.95c-1.13,-0.87 -16.35,4.77 -18.61,3.04l0,0.01z" fill="#e5e5e5" id="svg_7" stroke="#000000" stroke-width="3"/>
  <text fill="#000000" font-family="Cursive" font-size="25" id="svg_12" stroke="#000000" stroke-width="0" text-anchor="middle" transform="matrix(1 0 0 1 0 0) matrix(1 0 0 1 0 0) matrix(1 0 0 1 0 0)" x="58.38" xml:space="preserve" y="165.04">2:1</text>
  <text fill="#000000" font-family="Cursive" font-size="44" id="svg_14" stroke="#000000" stroke-width="0" text-anchor="middle" textLength="0" x="58.37" xml:space="preserve" y="119.74"/>
  <g id="svg_79">
   <path d="m53.19,93.06c5.32,-3.47 2.71,-3.56 11.32,-3.56c8.6,0 5.73,4.59 5.32,6.49c-0.41,1.89 -2.05,10.54 -2.46,10.54c-0.41,0 -19.25,-3.52 -19.25,-3.52l3.55,-8.89l1.52,-1.06z" fill="#e5e5e5" id="svg_78" stroke="#000000" stroke-width="3"/>
   <path d="m35.55,96.58c-4.27,3.32 -9.48,12.8 -9.48,15.17c0,2.37 11.14,13.04 11.14,13.04c0,0 11.85,-1.66 14.69,-3.08c2.85,-1.42 5.93,-9.24 5.21,-11.61c-0.71,-2.37 -3.08,-11.38 -6.4,-13.27c-3.32,-1.89 -10.9,-3.55 -15.17,-0.24l0,0z" fill="#e5e5e5" id="svg_77" stroke="#000000" stroke-width="3"/>
   <path d="m56.17,103.45l16.35,-13.51c8.77,-1.66 11.61,2.85 13.04,8.29c1.42,5.45 3.08,11.61 -5.45,16.35c-8.53,4.74 -15.64,-0.24 -18.01,-0.71c-2.37,-0.47 -11.61,-5.69 -5.93,-10.43l0,0z" fill="#e5e5e5" id="svg_76" stroke="#000000" stroke-width="3"/>
   <path d="m92.88,116.61c0,0 3.09,9.24 -5.53,8.99c-8.62,-0.25 -7.59,-0.02 -7.95,-2.38c-0.35,-2.36 -6.92,-4.1 -5.6,-5.66c1.31,-1.56 6.49,-5.75 8.77,-5.9c2.28,-0.15 10.31,4.95 10.31,4.95z" fill="#e5e5e5" id="svg_75" stroke="#000000" stroke-width="3"/>
   <path d="m43.14,117.91c3.78,-3.44 18.72,-6.16 18.72,-6.16c0,0 12.8,4.03 12.8,4.03c0,0 6.87,1.19 5.69,6.87c-1.19,5.69 -4.5,7.59 -4.5,7.59c0,0 -17.3,1.66 -18.48,1.89c-1.19,0.24 -15.17,0.71 -16.35,-0.24c-1.19,-0.95 -4.32,-3.88 -2.61,-8.06c1.71,-4.18 4.74,-5.93 4.74,-5.93l0,0z" fill="#e5e5e5" id="svg_74" stroke="#000000" stroke-width="3"/>
   <path d="m31.45,126.83c-0.17,-1.03 1.85,-6.41 5.36,-4.54c3.51,1.86 4.52,2.68 5.17,3.08c0.64,0.4 4.13,4.11 2.93,4.97c-1.2,0.86 -6.54,3.42 -7.23,2.57c-0.69,-0.86 -6.2,-4.28 -6.37,-5.31l0.16,-0.76l0,0z" fill="#e5e5e5" id="svg_73" stroke="#000000" stroke-width="3"/>
  </g>
 </g>
</svg>