<?xml version="1.0"?>
<svg width="200" height="300" xmlns="http://www.w3.org/2000/svg" xmlns:svg="http://www.w3.org/2000/svg">
 <!-- Created with SVG-edit - https://github.com/SVG-Edit/svgedit-->
 <g class="layer">
  <title>Layer 1</title>
  <rect fill="#3f7f00" height="296" id="svg_1" rx="5" ry="5" stroke="#000000" stroke-linejoin="round" stroke-width="2" width="196" x="2" y="2"/>
  <g id="svg_18">
   <path d="m33.54,195.54l140.51,-0.5c5.11,-2.36 -44.15,-41.4 -38.34,-40.7c8.42,0.1 21.43,1.18 25.27,0.3c3.83,-0.88 -42.87,-45.52 -38.94,-46.02c3.93,-0.5 17.8,0.3 19.07,0.4c1.28,0.1 -38.74,-44.64 -40.51,-42.97c-1.77,1.67 -33.82,37.76 -35.29,40.41c-1.48,2.65 19.17,1.38 18.59,2.65l-39.52,43.65c-1.57,2.07 24.88,-1.77 27.33,1.38c2.46,3.15 -44.31,42.01 -38.15,41.4l-0.01,0l-0.01,0z" fill="#206020" id="svg_19" stroke="#000000" stroke-width="5"/>
   <rect fill="#1c0e0e" height="13.77" id="svg_20" stroke="#000000" stroke-width="5" width="11.41" x="96.66" y="196.32"/>
  </g>
 </g>
</svg>