<?xml version="1.0"?>
<svg width="200" height="300" xmlns="http://www.w3.org/2000/svg" xmlns:svg="http://www.w3.org/2000/svg">
 <!-- Created with SVG-edit - https://github.com/SVG-Edit/svgedit-->
 <defs>undefinedundefinedundefined</defs>
 <g class="layer">
  <title>Layer 1</title>
  <rect fill="#696969" height="296" id="svg_1" rx="5" ry="5" stroke="#000000" stroke-linejoin="round" stroke-width="2" width="196" x="2" y="2"/>
  <g id="svg_138">
   <path d="m84.43,106.26c13.44,-8.24 6.85,-8.44 28.59,-8.44c21.73,0 14.49,10.9 13.45,15.38c-1.04,4.49 -5.17,25 -6.21,25c-1.04,0 -48.65,-8.34 -48.65,-8.34l8.96,-21.09l3.85,-2.52l0.01,0.01z" fill="#333333" id="svg_139" stroke="#000000" stroke-linecap="round" stroke-width="5"/>
   <path d="m39.88,114.6c-10.78,7.87 -23.95,30.35 -23.95,35.98c0,5.63 28.14,30.92 28.14,30.92c0,0 29.95,-3.94 37.12,-7.31c7.19,-3.37 14.97,-21.93 13.17,-27.54c-1.8,-5.63 -7.78,-26.98 -16.17,-31.47c-8.39,-4.49 -27.55,-8.43 -38.33,-0.57l0.01,-0.01l0.02,-0.01l-0.01,0.01z" fill="#333333" id="svg_140" stroke="#000000" stroke-width="5"/>
   <path d="m91.97,130.92l41.32,-32.04c22.16,-3.94 29.34,6.75 32.94,19.66c3.59,12.93 7.78,27.54 -13.78,38.78c-21.56,11.24 -39.53,-0.57 -45.51,-1.69c-5.99,-1.12 -29.34,-13.49 -14.97,-24.73l0,0.01l0,0.01z" fill="#333333" id="svg_141" stroke="#000000" stroke-width="5"/>
   <path d="m184.71,162.12c0,0 7.82,21.92 -13.98,21.33c-21.78,-0.59 -19.17,-0.04 -20.07,-5.64c-0.89,-5.59 -17.47,-9.73 -14.15,-13.43c3.32,-3.7 16.39,-13.65 22.15,-14c5.76,-0.36 26.06,11.74 26.06,11.74l0,0.01l-0.01,-0.01z" fill="#333333" id="svg_142" stroke="#000000" stroke-width="5"/>
   <path d="m59.04,165.19c9.54,-8.15 47.31,-14.61 47.31,-14.61c0,0 32.34,9.55 32.34,9.55c0,0 17.36,2.81 14.37,16.3c-2.99,13.49 -11.38,17.99 -11.38,17.99c0,0 -43.72,3.94 -46.7,4.49c-2.99,0.57 -38.33,1.69 -41.32,-0.57c-2.99,-2.24 -10.91,-9.19 -6.59,-19.11c4.32,-9.92 11.97,-14.05 11.97,-14.05l0,0.01l-0.01,0.01l0.01,-0.01z" fill="#333333" id="svg_143" stroke="#000000" stroke-width="5"/>
   <path d="m29.51,186.37c-0.43,-2.44 4.68,-15.19 13.54,-10.77c8.86,4.42 11.42,6.35 13.05,7.31c1.63,0.95 10.45,9.74 7.39,11.78c-3.04,2.04 -16.52,8.11 -18.27,6.09c-1.74,-2.04 -15.66,-10.15 -16.11,-12.58l0.4,-1.81l-0.01,0l0,-0.01l0.01,-0.01z" fill="#333333" id="svg_144" stroke="#000000" stroke-width="5"/>
  </g>
 </g>
</svg>