<?xml version="1.0"?>
<svg width="150" height="250" xmlns="http://www.w3.org/2000/svg" xmlns:svg="http://www.w3.org/2000/svg">
 <!-- Created with SVG-edit - https://github.com/SVG-Edit/svgedit-->
 <g class="layer">
  <title>Layer 1</title>
  <path d="m36.1,53.08c8.5,-11.38 16.47,-23.07 27.97,-25.46c11.49,-2.4 24.41,-0.58 33.18,6.18c8.77,6.75 9.94,17.91 11.82,30.82c1.89,12.92 -1.34,23.59 -10,36.24l-15,18.13l-1,53.81l-10.19,-0.06l0.19,-54.16c1.94,-9.15 -0.88,-3.19 6.33,-13.23c7.21,-10.03 9.58,-11.27 14.28,-18.48c4.7,-7.21 4.72,-17.17 3.86,-21.78c-0.86,-4.6 -3.55,-17.87 -7.41,-20.54c-3.86,-2.67 -13.15,-3.73 -18.06,-3.76c-4.91,-0.03 -11.57,2.27 -16.13,7.53c-4.56,5.25 -9.66,11.67 -9.82,11.11l-10.71,-5.09l0.69,-1.26z" fill="#000000" id="svg_3" stroke="#000000" stroke-width="5"/>
  <ellipse cx="77.7" cy="198.35" fill="#000000" id="svg_4" rx="10.08" ry="10.29" stroke="#000000" stroke-width="5"/>
 </g>
</svg>