<?xml version="1.0"?>
<svg width="135" height="140" xmlns="http://www.w3.org/2000/svg" xmlns:svg="http://www.w3.org/2000/svg">
 <!-- Created with SVG-edit - https://github.com/SVG-Edit/svgedit-->
 <g class="layer">
  <title>Layer 1</title>
  <ellipse cx="843" cy="486" fill="#FF0000" id="svg_2" opacity="0.5" rx="0" ry="0" stroke="#000000" stroke-width="5"/>
  <ellipse cx="791" cy="440" fill="#FF0000" id="svg_3" opacity="0.5" rx="0" ry="0" stroke="#000000" stroke-width="5"/>
  <ellipse cx="792" cy="489" fill="#FF0000" id="svg_4" opacity="0.5" rx="0" ry="0" stroke="#000000" stroke-width="5"/>
  <ellipse cx="653" cy="429" fill="#FF0000" id="svg_5" opacity="0.5" rx="0" ry="0" stroke="#000000" stroke-width="5"/>
  <ellipse cx="723" cy="478" fill="#FF0000" id="svg_6" opacity="0.5" rx="0" ry="0" stroke="#000000" stroke-width="5"/>
  <ellipse cx="916" cy="595" fill="#FF0000" id="svg_7" opacity="0.5" rx="0" ry="0" stroke="#000000" stroke-width="5"/>
  <ellipse cx="679" cy="432" fill="#FF0000" id="svg_8" opacity="0.5" rx="0" ry="0" stroke="#000000" stroke-width="5"/>
  <ellipse cx="635" cy="847" fill="#FF0000" id="svg_9" opacity="0.5" rx="0" ry="0" stroke="#000000" stroke-width="5"/>
  <ellipse cx="830" cy="782" fill="#FF0000" id="svg_10" opacity="0.5" rx="0" ry="0" stroke="#000000" stroke-width="5"/>
  <polyline fill="none" id="svg_11" opacity="0.5" points="495,511 " stroke="#000000" stroke-linecap="round" stroke-width="5"/>
  <polyline fill="none" id="svg_12" opacity="0.5" points="735,437 " stroke="#000000" stroke-linecap="round" stroke-width="5"/>
  <path d="m3.2,120.83l127.59,-0.45c4.64,-2.14 -40.09,-37.59 -34.82,-36.96c7.65,0.09 19.46,1.07 22.95,0.27c3.48,-0.8 -38.93,-41.34 -35.36,-41.79c3.57,-0.45 16.16,0.27 17.32,0.36c1.16,0.09 -35.18,-40.54 -36.79,-39.02c-1.61,1.52 -30.71,34.29 -32.05,36.7c-1.34,2.41 17.41,1.25 16.88,2.41l-35.89,39.64c-1.43,1.88 22.59,-1.61 24.82,1.25c2.23,2.86 -40.24,38.15 -34.64,37.59l-0.01,0z" fill="#206020" id="svg_1" stroke="#000000" stroke-width="5"/>
  <rect fill="#1c0e0e" height="12.5" id="svg_13" stroke="#000000" stroke-width="5" width="10.36" x="60.52" y="121.54"/>
 </g>
</svg>