<?xml version="1.0"?>
<svg width="166" height="110.00000000000001" xmlns="http://www.w3.org/2000/svg" xmlns:svg="http://www.w3.org/2000/svg">
 <!-- Created with SVG-edit - https://github.com/SVG-Edit/svgedit-->
 <g class="layer">
  <title>Layer 1</title>
  <path d="m67.64,12.23c12.47,-8.14 6.36,-8.35 26.53,-8.35c20.16,0 13.44,10.77 12.48,15.21c-0.96,4.44 -4.8,24.71 -5.76,24.71c-0.96,0 -45.13,-8.24 -45.13,-8.24l8.31,-20.84l3.57,-2.49z" fill="#333333" id="svg_16" stroke="#000000" stroke-linecap="round" stroke-width="5" transform="matrix(1 0 0 1 0 0)"/>
  <ellipse cx="843" cy="486" fill="#FF0000" id="svg_2" opacity="0.5" rx="0" ry="0" stroke="#000000" stroke-width="5"/>
  <ellipse cx="791" cy="440" fill="#FF0000" id="svg_3" opacity="0.5" rx="0" ry="0" stroke="#000000" stroke-width="5"/>
  <ellipse cx="792" cy="489" fill="#FF0000" id="svg_4" opacity="0.5" rx="0" ry="0" stroke="#000000" stroke-width="5"/>
  <ellipse cx="653" cy="429" fill="#FF0000" id="svg_5" opacity="0.5" rx="0" ry="0" stroke="#000000" stroke-width="5"/>
  <ellipse cx="723" cy="478" fill="#FF0000" id="svg_6" opacity="0.5" rx="0" ry="0" stroke="#000000" stroke-width="5"/>
  <ellipse cx="916" cy="595" fill="#FF0000" id="svg_7" opacity="0.5" rx="0" ry="0" stroke="#000000" stroke-width="5"/>
  <ellipse cx="679" cy="432" fill="#FF0000" id="svg_8" opacity="0.5" rx="0" ry="0" stroke="#000000" stroke-width="5"/>
  <ellipse cx="635" cy="847" fill="#FF0000" id="svg_9" opacity="0.5" rx="0" ry="0" stroke="#000000" stroke-width="5"/>
  <ellipse cx="830" cy="782" fill="#FF0000" id="svg_10" opacity="0.5" rx="0" ry="0" stroke="#000000" stroke-width="5"/>
  <polyline fill="none" id="svg_11" opacity="0.5" points="495,511 " stroke="#000000" stroke-linecap="round" stroke-width="5"/>
  <polyline fill="none" id="svg_12" opacity="0.5" points="735,437 " stroke="#000000" stroke-linecap="round" stroke-width="5"/>
  <path d="m26.31,20.47c-10,7.78 -22.22,30 -22.22,35.56c0,5.56 26.11,30.56 26.11,30.56c0,0 27.78,-3.89 34.44,-7.22c6.67,-3.33 13.89,-21.67 12.22,-27.22c-1.67,-5.56 -7.22,-26.67 -15,-31.11c-7.78,-4.44 -25.56,-8.33 -35.56,-0.56l0.01,-0.01z" fill="#333333" id="svg_1" stroke="#000000" stroke-width="5"/>
  <path d="m74.64,36.59l38.33,-31.67c20.56,-3.89 27.22,6.67 30.56,19.44c3.33,12.78 7.22,27.22 -12.78,38.33c-20,11.11 -36.67,-0.56 -42.22,-1.67c-5.56,-1.11 -27.22,-13.33 -13.89,-24.44l0,0.01z" fill="#333333" id="svg_13" stroke="#000000" stroke-width="5"/>
  <path d="m116.87,73.25c0,0 -1.67,-22.78 17.78,-17.22c19.44,5.56 17.22,4.44 16.67,10c-0.56,5.56 13.33,13.33 9.44,16.11c-3.89,2.78 -18.07,9.31 -23.33,8.33c-5.26,-0.98 -20.56,-17.22 -20.56,-17.22z" fill="#333333" id="svg_15" stroke="#000000" stroke-width="5" transform="rotate(165.686 139.138 73.0901)"/>
  <path d="m44.09,70.47c8.85,-8.06 43.89,-14.44 43.89,-14.44c0,0 30,9.44 30,9.44c0,0 16.11,2.78 13.33,16.11c-2.78,13.33 -10.56,17.78 -10.56,17.78c0,0 -40.56,3.89 -43.33,4.44c-2.78,0.56 -35.56,1.67 -38.33,-0.56c-2.78,-2.22 -10.12,-9.09 -6.11,-18.89c4.01,-9.8 11.11,-13.89 11.11,-13.89l0,0.01z" fill="#333333" id="svg_14" stroke="#000000" stroke-width="5" transform="matrix(1 0 0 1 0 0)"/>
  <path d="m16.69,91.4c-0.4,-2.41 4.34,-15.02 12.56,-10.65c8.22,4.37 10.6,6.28 12.11,7.22c1.51,0.94 9.69,9.63 6.86,11.64c-2.82,2.01 -15.33,8.02 -16.95,6.02c-1.62,-2.01 -14.53,-10.03 -14.94,-12.44l0.37,-1.79z" fill="#333333" id="svg_17" stroke="#000000" stroke-width="5"/>
 </g>
</svg>